<svg id="Слой_1" data-name="Слой 1" xmlns="http://www.w3.org/2000/svg" viewBox="0 0 894.5 215.58"><defs><style>.cls-1{fill:#0fa0e4;}.cls-2{fill:#17254c;}.cls-3{fill:#6e8087;}</style></defs><path class="cls-1" d="M995.65,347.58c28.14,8.72,47.21,30.65,46.87,60.83.09,13.31-3.28,24.66-10.3,34.81-1.57,2.28-1.55,3.66.5,5.41,2.54,2.16,4.86,4.56,7.33,6.8,2.11,1.93,2,3.58-1.85,6.15a34.16,34.16,0,0,0-10.09,10.05c-2.74,4.31-3.79,3.43-5.21,1.82-2.53-2.88-5.28-5.59-7.57-8.65-1.8-2.41-3.17-2.47-5.71-.92-16.24,9.86-33.59,11.16-51.43,5.5C939.6,463.48,927,451,919.46,433.05a63.57,63.57,0,0,1-2-44.72c5.73-18,16.4-30.16,33.79-37.8,4.41-1.94,3.2-1.46,5.31-2.46,3.4-1.61,12.06-3,20.16-3C984,345.07,995.65,347.58,995.65,347.58ZM994,444.29c-1.93-1.84-3.45-3.31-5-4.75-2.56-2.38-5.11-4.77-7.72-7.09-1.45-1.29-2-2.35-.35-4.06q6.17-6.19,12-12.71c1.6-1.78,2.69-1.88,4.38-.08,3.53,3.75,7.31,7.28,10.93,11,1.67,1.71,2.73,1.39,3.65-.71a45.4,45.4,0,0,0,3.32-13c3-25.68-17.56-49.58-48.13-41.46a30.69,30.69,0,0,0-18,12.66c-7.68,11.27-8.88,23.63-5.37,36.32C951.24,447.64,976.16,453.11,994,444.29Z" transform="translate(-148.03 -341.52)"/><path class="cls-2" d="M820.3,387.17c.4,0,.32-.62.34-.88.24-3.08-2-7.79.76-9.05,2.26-1,3-.61,8.71-.57,4.16-.11,8.33,0,12.49-.15,2.18-.07,3,.81,3,2.91s0,4.33,0,6.49q.09,33.22.18,66.44c0,6.69-.44,13.29-2.58,19.71-4.54,13.62-14.08,22.29-27.64,25.72-19.42,4.92-38.33,3-56-7.13-4-2.3-3.93-2.37-1.64-6.32s4.72-8,6.85-12.18c1.27-2.5,2.44-2.52,4.54-.91,9.1,7,19.62,8.71,30.72,7.82,13.39-1.07,20.55-8.68,20.88-22,0-2.13.34-4.29-.27-6.34-1.89-.56-2.56.89-3.37,1.79-16.44,18.37-48,11.41-59.22-8.14-7-12.25-8.08-25.62-5.34-39.2.86-4.25,1.22-6.43,2.48-9.21,2.27-5,3.62-6.94,4.94-8.29,5.63-5.8,5.67-5.76,13.6-8.86,11.66-4.57,23.37-6,35.29-.6C813.54,380.25,818.22,387.21,820.3,387.17Zm1.29,31.77c-.06-13.34-9.65-22.69-23.2-22.63-13.34.05-22,8.92-21.84,22.47.13,14.38,8.37,23.14,21.76,23.11C812.4,441.87,821.65,432.74,821.59,418.94Z" transform="translate(-148.03 -341.52)"/><path class="cls-2" d="M386.62,347.57q21,0,42,0c4.49,0,4.51,0,4.57,4.26.07,5.16-.1,10.33.22,15.48.23,3.58-1.39,4-4.4,4-10.16-.18-20.32-.15-30.48-.16-9.65,0-19.31.13-29,0-3-.05-4.1.86-4,4,.26,6.65.14,13.31.22,20,.06,4.29.1,4.34,4.51,4.35q24.48,0,49,0c5.33,0,5.39,0,5.48,5.5.08,4.66-.22,9.34.07,14,.21,3.32-1.2,3.82-4.06,3.8-16-.16-32-.17-48-.19-8.41,0-7.14-.76-7.18,7.13-.06,12.15-.05,24.31.15,36.46,0,3-.62,4.19-3.82,4.05-5.81-.26-11.65-.1-17.48-.18-4.15-.06-4.2-.11-4.2-4.63,0-15.65.12-31.31,0-47-.14-14.28-.11-28.58-.2-42.86-.05-8.16-.39-16.42.18-24.63.21-3.08,1.47-3.41,4-3.4C358.31,347.61,372.46,347.57,386.62,347.57Z" transform="translate(-148.03 -341.52)"/><path class="cls-2" d="M694.93,471.34c-22.17-.25-37.31-8.2-46.32-25.68-8.61-16.69-7.6-33.53,2.3-49.44,5.34-8.58,13.18-14,22.72-18.18a54.19,54.19,0,0,1,17.14-3.78c11.37-.35,21,4.13,30.15,10.17a33.43,33.43,0,0,1,9.47,8.74,44.13,44.13,0,0,1,4.77,8.71c6.38,14.36,6.45,28.89-.42,43C726.19,462.38,711.44,470.59,694.93,471.34Zm-26.24-47.66a28.15,28.15,0,0,0,1.36,8.84c3,10.38,11.46,16.76,21.73,16.45,11.05-.33,19.82-7.06,22.32-17.33,1.57-6.43,1.62-12.93-.82-19.16-2.8-7.2-7.57-12.49-15.47-14.21C681.36,394.68,668.72,405.29,668.69,423.68Z" transform="translate(-148.03 -341.52)"/><path class="cls-2" d="M524.56,383.6a1.09,1.09,0,0,0,1.72.44c4.7-3.92,9.34-7.13,15.17-8,9.4-1.36,18.57-1.69,27,4.22a23.5,23.5,0,0,1,6.88,8,37.43,37.43,0,0,1,5.07,18c.09,20,.08,40,.21,59.95,0,2.9-.87,3.91-4,3.72a138.48,138.48,0,0,0-16.8,0c-3.43.21-4.24-.92-4.22-4,.12-17,0-34,0-50.95a26.61,26.61,0,0,0-.26-5c-1.09-5.58-3.87-10.09-9.58-11.72-6.11-1.75-11.93-1-16.51,4a18.31,18.31,0,0,0-5,13.15c.21,16.32.21,32.64.33,49,0,5.61.09,5.62-5.72,5.6-5.33,0-10.67-.23-16,0-3.13.13-3.9-.91-3.88-4,.1-27.14,0-54.29,0-81.43,0-1.16-.08-2.34-.05-3.49.1-4.53.1-4.53,3.38-4.68,5.15-.24,10.33-.26,15.48-.05,3.13.14,5.1,1.29,6.22,5.14A16.8,16.8,0,0,0,524.56,383.6Z" transform="translate(-148.03 -341.52)"/><path class="cls-2" d="M601.86,405.74c0-19.81.06-39.63-.07-59.44,0-3,.6-4.19,3.82-4.06,5.65.22,11.33.22,17-.08,3.41-.17,4.14,1.09,4.12,4.27-.15,19.15-.12,38.3-.1,57.45,0,20.48.08,41,.1,61.44,0,4.61,0,4.63-4.62,4.61-5.33,0-10.66-.26-16-.06-3.24.12-4.24-.76-4.2-4.18" transform="translate(-148.03 -341.52)"/><path class="cls-2" d="M476.23,422.79c0,14.33-.09,28.66.07,43,0,3.21-.72,4.49-4.12,4.33-6-.27-12-.26-18-.13-2.82.06-3.74-.86-3.7-3.72.15-11.83.08-23.65.09-35.48q0-24.73.07-49.48c0-4.2,0-4.2,4.38-4.23,5.67,0,11.33-.11,17-.11,4.11,0,4,0,4,4.35" transform="translate(-148.03 -341.52)"/><path class="cls-1" d="M870,422.78V381.3c0-4.65,0-4.67,4.69-4.67q8,0,16,.06c4.33,0,4.41.08,4.43,4.52.07,18,.08,36,.13,54,0,10,.1,20,.07,30,0,4.77-.13,4.82-4.71,4.86-5.49,0-11-.16-16.49.05-3.3.13-4.28-1-4.24-4.32.17-14.32.07-28.65.07-43Z" transform="translate(-148.03 -341.52)"/><path class="cls-1" d="M882.17,342.38c3.33,0,6.67.15,10,0,2.7-.16,3.4,1,3.36,3.49-.06,3.59-.2,5-.2,10.78,0,2.81.3,5.11-.33,7.64-.57,2.27-3.26,1.76-5,1.8-5.66.1-11.32.11-17,.07-4.08,0-5.1-1-5.16-4.88-.06-5,.07-10,0-15-.05-2.73,1-4,3.83-3.91,3.49.09,7,0,10.48,0Z" transform="translate(-148.03 -341.52)"/><path class="cls-2" d="M463.09,365.36c-3.32,0-6.64-.09-10,0-2.21.08-2.87-.85-2.82-2.95.11-5.64.05-11.29.11-16.94,0-1.87.15-4,2.73-3.82,6.9.4,13.84-1,20.74.71,1.75.43,2.58.66,2.55,2.61-.09,5.81-.1,11.62,0,17.43,0,2.17-.77,3-2.9,2.9-3.48-.1-7,0-10.46,0Z" transform="translate(-148.03 -341.52)"/><path class="cls-2" d="M279.55,350.68a1.17,1.17,0,0,1,.56-2.13c9.78-1.89,15.26-2.94,29.73-5.8,1.86-.39,3.22-.31,4.2.68s.67,1.91.31,3.68-2.28,14.33-4.19,27.84c-.12.85-.65,1.37-1.76.44-2.44-2-5.09-4.2-5.82-4.93-3.43-3.42-5.6-1.41-6.83-.23-4,3.79-2.34,2.13-4.91,4.67Q265.43,400,240.12,425.28c-3.2,3.18-3.26,3.22-6.51.16-4.13-3.88-8.27-7.75-12.22-11.81-1.82-1.87-2.83-2.43-5.06-.19q-27.5,27.63-55.3,55c-5.69,5.64-4.14,4.78-8.94.06-1-1-2.75-2.86-3.75-3.93a1.18,1.18,0,0,1,0-1.64c3.17-3.17,15-15,21.35-21.22q22.83-22.43,45.63-44.87c3.93-3.86,3.09-2.9,9.52,3,2.91,2.64,5.68,5.42,8.33,8.31,2.09,2.27,3.25,2.88,5.55.52,15.45-15.83,30.6-32,46.61-47.24a3.82,3.82,0,0,0-.15-5.78C283.8,354.39,283.31,353.85,279.55,350.68Z" transform="translate(-148.03 -341.52)"/><path class="cls-1" d="M198.63,372.78c1.38-2.77.57-6.17-.75-9.23-1.14-2.65.07-4.32,3-5,3.22-.72,6.39-1.66,9.58-2.52,5.23-1.42,5.23-1.43,7.19,3.51,3.37,8.51,3.42,8.05,12.51,9,5,.5,7.17-1.62,9.26-5.3,4-7.13,4.1-7.07,11.5-3.77,3,1.34,6.1,2.51,9.08,3.92,1.74.82,2.43,1.84,1.46,4.18-6.34,9.2-9.06,13-15.25,21.2-1.53,1.26-2.54,1.71-4.3.66-12.11-7.25-31.58-5-43.39,7.86a17.68,17.68,0,0,0-3.53,4.79c-2.54,5.85-5.49,8.15-9.16,11.57-7.19,6.69-14.16,13.61-21.16,20.49-2.59,2.55-2.59,2.55-3.27,2.22s-2.07-9.32-2.76-13.89c-.28-1.81.35-2.77,2.16-3.22,3.25-.81,5.64-1.47,9.18-2.32,2.26-.54,2.85-.72,3.41-3.07.37-1.62,1.13-4,1.51-5.9,1.12-5.66-.45-8-7-11.56-4.39-2.39-3.82-2.84-1.35-7.49,1.72-3.21,3.83-6.14,5.65-9.26,1.34-2.29,3.21-3.12,5.85-1.58a27.81,27.81,0,0,0,6.36,2.75c2.61.74,5.19,1.22,8-1.52" transform="translate(-148.03 -341.52)"/><path class="cls-1" d="M297.12,381.73c.33-.33,1.42-.43,1.47,0a18.76,18.76,0,0,1,0,3.54c0,29.82-.64,59.65,0,89.47.12,5.29.12,5.29-3.9,5.31-6,0-13.42,0-19.41,0-3.49,0-3.49,0-3.49-3.68.09-22.33.07-44.65.06-67a4.69,4.69,0,0,1,1.33-3.61C281,397.91,288.9,390,297.12,381.73Z" transform="translate(-148.03 -341.52)"/><path class="cls-1" d="M234.65,439.17a.86.86,0,0,1,1.26-.77c2.24,1.17,3.7.47,5.31-1.25,5.24-5.56,10.75-10.87,16.21-16.22,1-.95,1.74-2.2,3-2.78a.86.86,0,0,1,1.15.48,5.55,5.55,0,0,1,.14,2.21q0,27.18,0,54.36c0,4.7,0,4.7-3.34,4.76-6.31.11-13.48,0-19.8.12-4-.12-4-.12-4-3.47C234.69,464.47,234.65,452.33,234.65,439.17Z" transform="translate(-148.03 -341.52)"/><path class="cls-1" d="M224.79,454.22c0,7.33,0,14.66,0,22,0,3.85,0,3.85-3.56,3.84-6.71,0-13,0-19.48,0-4.17,0-4.17,0-4.06-3.88.05-9.16-.11-18.29-.11-27.47a7.59,7.59,0,0,1,2.66-6.08c5-4.87,9.86-9.92,14.89-14.77,3.85-4,4.31-4.65,6.16-2.76,3.5,3.59,3.5,5.6,3.48,7.15,0,7.32,0,14.65,0,22Z" transform="translate(-148.03 -341.52)"/><path class="cls-1" d="M163.54,478.26l23.35-22.7a.48.48,0,0,1,.81.34c0,7.8,0,14.57,0,21.31,0,2.85,0,2.85-2.87,2.86-6.85,0-12.74,0-20.57,0A1,1,0,0,1,163.54,478.26Z" transform="translate(-148.03 -341.52)"/><path class="cls-2" d="M309.87,376.69" transform="translate(-148.03 -341.52)"/><path class="cls-2" d="M277.38,348.89" transform="translate(-148.03 -341.52)"/><path class="cls-3" d="M187.23,557.09a28.46,28.46,0,0,1-10.18-1.76,24.48,24.48,0,0,1-8.12-5,22.66,22.66,0,0,1-5.39-7.69,25.74,25.74,0,0,1,0-19.56,22.66,22.66,0,0,1,5.39-7.69,24.48,24.48,0,0,1,8.12-5,30.62,30.62,0,0,1,21.73.46,21.6,21.6,0,0,1,8.49,6.56L198.88,525a16.38,16.38,0,0,0-5-4,12.86,12.86,0,0,0-6-1.4,14.43,14.43,0,0,0-5.26.93,11.26,11.26,0,0,0-4.09,2.69,12.74,12.74,0,0,0-2.66,4.23,15.85,15.85,0,0,0,0,10.92,12.59,12.59,0,0,0,2.66,4.22,11.16,11.16,0,0,0,4.09,2.7,14.43,14.43,0,0,0,5.26.93,13,13,0,0,0,6-1.4,15.94,15.94,0,0,0,5-4.12l8.39,7.58a21.86,21.86,0,0,1-8.49,6.59A28.11,28.11,0,0,1,187.23,557.09Z" transform="translate(-148.03 -341.52)"/><path class="cls-3" d="M206.74,556.16l20.56-46.59h13l20.63,46.59H247.2L231.1,516h5.19l-16.11,40.13ZM218,547.05l3.4-9.66h22.76l3.39,9.66Z" transform="translate(-148.03 -341.52)"/><path class="cls-3" d="M264.64,556.16V509.57h21.23a27.07,27.07,0,0,1,11.05,2.07,15.85,15.85,0,0,1,7.15,6,18.12,18.12,0,0,1,0,18.37,16.2,16.2,0,0,1-7.15,5.93A26.9,26.9,0,0,1,285.87,544h-14l5.93-5.79v18Zm13.18-16.44-5.93-6.19h13.18c2.75,0,4.82-.58,6.19-1.76a7.07,7.07,0,0,0,0-10c-1.37-1.22-3.44-1.83-6.19-1.83H271.89l5.93-6.06Z" transform="translate(-148.03 -341.52)"/><path class="cls-3" d="M313,556.16V509.57H326.2v46.59Z" transform="translate(-148.03 -341.52)"/><path class="cls-3" d="M345.44,556.16V520H331.13V509.57h41.73V520H358.62v36.14Z" transform="translate(-148.03 -341.52)"/><path class="cls-3" d="M369.87,556.16l20.56-46.59h13L424,556.16H410.33L394.22,516h5.2l-16.11,40.13Zm11.24-9.11,3.4-9.66h22.76l3.39,9.66Z" transform="translate(-148.03 -341.52)"/><path class="cls-3" d="M427.77,556.16V509.57H441v36.14h22.16v10.45Z" transform="translate(-148.03 -341.52)"/></svg>