<svg id="Слой_1" data-name="Слой 1" xmlns="http://www.w3.org/2000/svg" viewBox="0 0 166.63 137.55"><defs><style>.cls-1{fill:#17254c;}.cls-2{fill:#0fa0e4;}</style></defs><path class="cls-1" d="M185,344.29a1.18,1.18,0,0,1,.56-2.13c9.79-1.89,15.27-2.94,29.74-5.81,1.86-.38,3.21-.3,4.2.69s.67,1.91.31,3.68S217.5,355,215.6,368.56c-.12.85-.65,1.37-1.77.44-2.43-2-5.08-4.2-5.81-4.93-3.43-3.43-5.6-1.41-6.84-.24-4,3.79-2.34,2.14-4.9,4.68q-25.41,25.13-50.72,50.37c-3.21,3.19-3.26,3.23-6.51.17-4.13-3.88-8.27-7.75-12.22-11.81-1.82-1.87-2.84-2.43-5.06-.2q-27.51,27.65-55.3,55c-5.7,5.63-4.14,4.78-8.94.06-1-1-2.76-2.86-3.75-3.94a1.17,1.17,0,0,1,0-1.63c3.17-3.17,15-15,21.35-21.23Q98,412.88,120.79,390.43c3.93-3.86,3.09-2.9,9.52,2.95,2.9,2.64,5.67,5.43,8.33,8.32,2.08,2.26,3.25,2.88,5.55.52,15.45-15.84,30.6-32,46.61-47.24a3.82,3.82,0,0,0-.16-5.78C189.23,348,188.75,347.46,185,344.29Z" transform="translate(-53.46 -336.14)"/><path class="cls-2" d="M104.06,366.38c1.38-2.76.58-6.16-.74-9.23-1.14-2.65.07-4.32,3-4.95,3.22-.72,6.39-1.66,9.58-2.53,5.23-1.41,5.22-1.42,7.18,3.52,3.38,8.51,3.43,8.05,12.52,9,5,.5,7.17-1.62,9.25-5.3,4-7.13,4.1-7.08,11.51-3.78,3,1.35,6.1,2.52,9.07,3.93,1.75.82,2.44,1.84,1.47,4.17-6.34,9.21-9.06,13-15.26,21.21-1.53,1.26-2.53,1.71-4.3.65-12.11-7.24-31.57-5-43.38,7.86a18,18,0,0,0-3.54,4.8c-2.54,5.85-5.48,8.14-9.16,11.57C84,414,77.06,420.88,70.06,427.76c-2.59,2.54-2.59,2.54-3.27,2.22s-2.07-9.32-2.77-13.89c-.27-1.81.36-2.78,2.17-3.23,3.25-.8,5.64-1.46,9.17-2.31,2.27-.55,2.86-.72,3.41-3.07.38-1.62,1.14-4,1.51-5.91,1.13-5.65-.44-8-7-11.55-4.39-2.39-3.83-2.84-1.35-7.49,1.71-3.21,3.83-6.14,5.65-9.26,1.33-2.3,3.21-3.12,5.85-1.58a27.78,27.78,0,0,0,6.36,2.74c2.6.75,5.18,1.23,8-1.51" transform="translate(-53.46 -336.14)"/><path class="cls-2" d="M202.56,375.34c.33-.33,1.42-.44,1.47,0a19.46,19.46,0,0,1,0,3.54c0,29.82-.63,59.65,0,89.47.11,5.29.11,5.29-3.9,5.31-6,0-13.43,0-19.41,0-3.49,0-3.49,0-3.49-3.68.09-22.33.06-44.65.06-67a4.75,4.75,0,0,1,1.32-3.62C186.48,391.52,194.34,383.6,202.56,375.34Z" transform="translate(-53.46 -336.14)"/><path class="cls-2" d="M140.08,432.77a.87.87,0,0,1,1.27-.77c2.24,1.18,3.7.48,5.31-1.24,5.24-5.56,10.75-10.87,16.21-16.22,1-1,1.74-2.21,3-2.79a.87.87,0,0,1,1.15.48,5.61,5.61,0,0,1,.14,2.22q0,27.18,0,54.35c0,4.71,0,4.71-3.34,4.77-6.31.11-13.49,0-19.8.12-4-.12-4-.12-4-3.47C140.13,458.08,140.09,445.94,140.08,432.77Z" transform="translate(-53.46 -336.14)"/><path class="cls-2" d="M130.23,447.83c0,7.33,0,14.65,0,22,0,3.85,0,3.85-3.57,3.84-6.7,0-13,0-19.47,0-4.17,0-4.17,0-4.06-3.88,0-9.16-.11-18.3-.11-27.47a7.59,7.59,0,0,1,2.66-6.08c5-4.88,9.85-9.92,14.89-14.77,3.85-4.05,4.31-4.65,6.15-2.76,3.51,3.59,3.51,5.6,3.49,7.14,0,7.33,0,14.66,0,22Z" transform="translate(-53.46 -336.14)"/><path class="cls-2" d="M69,471.86l23.35-22.7a.49.49,0,0,1,.82.35v21.31c0,2.85,0,2.85-2.86,2.86-6.86,0-12.74,0-20.57,0A1,1,0,0,1,69,471.86Z" transform="translate(-53.46 -336.14)"/><path class="cls-1" d="M215.31,370.3" transform="translate(-53.46 -336.14)"/><path class="cls-1" d="M182.82,342.5" transform="translate(-53.46 -336.14)"/></svg>