<svg id="Слой_1" data-name="Слой 1" xmlns="http://www.w3.org/2000/svg" viewBox="0 0 287.23 287.23"><defs><style>.cls-1{fill:#fff;stroke:#000;stroke-miterlimit:10;}.cls-2{fill:#17254c;}.cls-3{fill:#0fa0e4;}</style></defs><rect class="cls-1" x="0.5" y="0.5" width="286.23" height="286.23"/><path class="cls-2" d="M131.54,8.15a1.18,1.18,0,0,1-.27-1.65A1.21,1.21,0,0,1,132.1,6c9.79-1.89,15.27-2.94,29.74-5.81,1.86-.38,3.21-.3,4.2.69s.67,1.91.31,3.68S164,18.86,162.14,32.42c-.12.85-.65,1.37-1.77.44-2.43-2-5.08-4.2-5.81-4.93-3.43-3.43-5.6-1.41-6.84-.24-4,3.79-2.34,2.14-4.9,4.68Q117.41,57.5,92.1,82.74c-3.21,3.19-3.26,3.23-6.51.17C81.46,79,77.32,75.16,73.37,71.1c-1.82-1.87-2.84-2.43-5.06-.2Q40.8,98.54,13,125.9c-5.7,5.63-4.14,4.78-8.94.06-1-1-2.76-2.86-3.75-3.94a1.17,1.17,0,0,1,0-1.63c3.17-3.17,15-15,21.35-21.23Q44.55,76.73,67.33,54.29c3.93-3.86,3.09-2.9,9.52,3,2.9,2.64,5.67,5.43,8.33,8.32,2.08,2.26,3.25,2.88,5.55.52,15.45-15.84,30.6-32,46.61-47.24a3.82,3.82,0,0,0,.25-5.4l-.41-.38C135.77,11.86,135.29,11.32,131.54,8.15Z" transform="translate(60.3 74.84)"/><path class="cls-3" d="M50.6,30.24c1.38-2.76.58-6.16-.74-9.23-1.14-2.65.07-4.32,3-5,3.22-.72,6.39-1.66,9.58-2.53,5.23-1.41,5.22-1.42,7.18,3.52,3.38,8.51,3.43,8.05,12.52,9,5,.5,7.17-1.62,9.25-5.3,4-7.13,4.1-7.08,11.51-3.78,3,1.35,6.1,2.52,9.07,3.93,1.75.82,2.44,1.84,1.47,4.17-6.34,9.21-9.06,13-15.26,21.21-1.53,1.26-2.53,1.71-4.3.65-12.11-7.24-31.57-5-43.38,7.86A17.77,17.77,0,0,0,47,59.59c-2.54,5.85-5.48,8.14-9.16,11.57-7.26,6.7-14.2,13.58-21.2,20.46C14,94.16,14,94.16,13.33,93.84S11.26,84.52,10.56,80c-.27-1.81.36-2.78,2.17-3.23,3.25-.8,5.64-1.46,9.17-2.31,2.27-.55,2.86-.72,3.41-3.07.38-1.62,1.14-4,1.51-5.91,1.13-5.65-.44-8-7-11.55C15.43,51.49,16,51,18.47,46.39c1.71-3.21,3.83-6.14,5.65-9.26,1.33-2.3,3.21-3.12,5.85-1.58a27.78,27.78,0,0,0,6.36,2.74c2.6.75,5.18,1.23,8-1.51" transform="translate(60.3 74.84)"/><path class="cls-3" d="M149.1,39.2c.33-.33,1.42-.44,1.47,0a19,19,0,0,1,0,3.54c0,29.82-.63,59.65,0,89.47.11,5.29.11,5.29-3.9,5.31H127.26c-3.49,0-3.49,0-3.49-3.68.09-22.33.06-44.65.06-67a4.76,4.76,0,0,1,1.32-3.62C133,55.38,140.88,47.46,149.1,39.2Z" transform="translate(60.3 74.84)"/><path class="cls-3" d="M86.62,96.63a.87.87,0,0,1,.87-.87.91.91,0,0,1,.4.1c2.24,1.18,3.7.48,5.31-1.24C98.44,89.06,104,83.75,109.41,78.4c1-1,1.74-2.21,3-2.79a.87.87,0,0,1,1.14.46v0a5.73,5.73,0,0,1,.14,2.22v54.35c0,4.71,0,4.71-3.34,4.77-6.31.11-13.49,0-19.8.12-4-.12-4-.12-4-3.47C86.67,121.94,86.63,109.8,86.62,96.63Z" transform="translate(60.3 74.84)"/><path class="cls-3" d="M76.77,111.69v22c0,3.85,0,3.85-3.57,3.84H53.73c-4.17,0-4.17,0-4.06-3.88,0-9.16-.11-18.3-.11-27.47a7.6,7.6,0,0,1,2.66-6.08c5-4.88,9.85-9.92,14.89-14.77,3.85-4,4.31-4.65,6.15-2.76,3.51,3.59,3.51,5.6,3.49,7.14v22Z" transform="translate(60.3 74.84)"/><path class="cls-3" d="M15.54,135.72,38.89,113a.49.49,0,0,1,.69,0,.48.48,0,0,1,.13.32v21.31c0,2.85,0,2.85-2.86,2.86H16.28a1,1,0,0,1-.74-1.82Z" transform="translate(60.3 74.84)"/><path class="cls-2" d="M161.85,34.16" transform="translate(60.3 74.84)"/><path class="cls-2" d="M129.36,6.36" transform="translate(60.3 74.84)"/></svg>