<?xml version="1.0" encoding="utf-8"?>
<!-- Generator: Adobe Illustrator 24.3.0, SVG Export Plug-In . SVG Version: 6.00 Build 0)  -->
<svg version="1.1" id="Слой_1" xmlns="http://www.w3.org/2000/svg" xmlns:xlink="http://www.w3.org/1999/xlink" x="0px" y="0px"
	 viewBox="0 0 894.5 158.9" style="enable-background:new 0 0 894.5 158.9;" xml:space="preserve">
<style type="text/css">
	.st0{fill:#FFFFFF;stroke:#FFFDFD;stroke-miterlimit:10;}
</style>
<path class="st0" d="M847.6,6.1c28.1,8.7,47.2,30.6,46.9,60.8c0.1,13.3-3.3,24.6-10.3,34.8c-1.6,2.3-1.5,3.7,0.5,5.4
	c2.5,2.2,4.9,4.6,7.3,6.8c2.1,1.9,2,3.6-1.8,6.1c-4,2.6-7.5,6-10.1,10c-2.8,4.3-3.8,3.4-5.2,1.8c-2.5-2.9-5.3-5.6-7.6-8.7
	c-1.8-2.4-3.2-2.5-5.7-0.9c-16.2,9.9-33.6,11.2-51.4,5.5c-18.6-5.9-31.2-18.3-38.7-36.3c-6.1-14.2-6.8-30.1-2-44.7
	c5.7-18,16.4-30.2,33.8-37.8c4.4-1.9,3.2-1.5,5.3-2.5c3.4-1.6,12-3,20.2-3C836,3.6,847.6,6.1,847.6,6.1z M845.9,102.8
	c-1.9-1.8-3.5-3.3-5-4.8c-2.6-2.4-5.1-4.8-7.7-7.1c-1.4-1.3-2-2.4-0.3-4.1c4.1-4.1,8.1-8.4,12-12.7c1.6-1.8,2.7-1.9,4.4-0.1
	c3.5,3.8,7.3,7.3,10.9,11c1.7,1.7,2.7,1.4,3.7-0.7c1.8-4.1,2.9-8.5,3.3-13c3-25.7-17.6-49.6-48.1-41.5c-7.4,1.9-13.8,6.4-18,12.7
	c-7.7,11.3-8.9,23.6-5.4,36.3C803.2,106.1,828.1,111.6,845.9,102.8z"/>
<path class="st0" d="M672.3,45.6c0.4,0,0.3-0.6,0.3-0.9c0.2-3.1-2-7.8,0.8-9c2.3-1,3-0.6,8.7-0.6c4.2-0.1,8.3,0,12.5-0.1
	c2.2-0.1,3,0.8,3,2.9s0,4.3,0,6.5c0.1,22.2,0.1,44.3,0.2,66.4c0,6.7-0.5,13.3-2.6,19.7c-4.6,13.6-14.1,22.3-27.7,25.7
	c-19.4,4.9-38.3,3-56-7.1c-4-2.3-3.9-2.4-1.6-6.3s4.7-8,6.8-12.2c1.3-2.5,2.4-2.5,4.5-0.9c9.1,7,19.6,8.7,30.7,7.8
	c13.4-1.1,20.5-8.7,20.9-22c0-2.1,0.3-4.3-0.3-6.3c-1.9-0.6-2.6,0.9-3.4,1.8c-16.5,18.4-48,11.4-59.2-8.1c-7-12.2-8.1-25.6-5.3-39.2
	c0.9-4.2,1.2-6.4,2.5-9.2c2.3-5,3.6-6.9,4.9-8.3c5.6-5.8,5.7-5.8,13.6-8.9c11.7-4.6,23.4-5.9,35.3-0.6
	C665.5,38.7,670.2,45.7,672.3,45.6z M673.5,77.4c-0.1-13.3-9.7-22.7-23.2-22.6c-13.3,0-22,8.9-21.8,22.5
	c0.1,14.4,8.4,23.1,21.8,23.1C664.4,100.4,673.6,91.2,673.5,77.4z"/>
<path class="st0" d="M238.6,6.1h42c4.5,0,4.5,0,4.6,4.3c0.1,5.2-0.1,10.3,0.2,15.5c0.2,3.6-1.4,4-4.4,4c-10.1-0.2-20.3-0.1-30.5-0.2
	c-9.7,0-19.3,0.1-29,0c-3,0-4.1,0.9-4,4c0.3,6.6,0.1,13.3,0.2,20c0,4.3,0.1,4.3,4.5,4.4c16.3,0,32.7,0,49,0c5.3,0,5.4,0,5.5,5.5
	c0.1,4.7-0.2,9.3,0.1,14c0.2,3.3-1.2,3.8-4.1,3.8c-16-0.1-32-0.2-48-0.2c-8.4,0-7.1-0.8-7.2,7.1c-0.1,12.2-0.1,24.3,0.1,36.5
	c0,3-0.6,4.2-3.8,4c-5.8-0.3-11.6-0.1-17.5-0.2c-4.1,0-4.2-0.1-4.2-4.6c0-15.7,0.1-31.3,0-47c-0.1-14.3-0.1-28.6-0.2-42.9
	c0-8.2-0.4-16.4,0.2-24.6c0.2-3.1,1.5-3.4,4-3.4C210.3,6.1,224.4,6.1,238.6,6.1z"/>
<path class="st0" d="M546.9,129.9c-22.2-0.2-37.3-8.2-46.3-25.7c-8.6-16.7-7.6-33.5,2.3-49.4c5.3-8.6,13.2-14,22.7-18.2
	c5.5-2.2,11.3-3.5,17.1-3.8c11.4-0.4,21,4.1,30.2,10.2c3.7,2.3,6.9,5.2,9.5,8.7c1.9,2.7,3.5,5.6,4.8,8.7c6.4,14.4,6.5,28.9-0.4,43
	C578.2,120.9,563.4,129.1,546.9,129.9z M520.7,82.2c0,3,0.4,6,1.3,8.8c3,10.4,11.5,16.8,21.7,16.5c11-0.3,19.8-7.1,22.3-17.3
	c1.6-6.4,1.6-12.9-0.8-19.2c-2.8-7.2-7.6-12.5-15.5-14.2C533.3,53.2,520.7,63.8,520.7,82.2L520.7,82.2z"/>
<path class="st0" d="M376.5,42.1c0.2,0.6,0.8,0.8,1.4,0.6c0.1,0,0.2-0.1,0.3-0.2c4.7-3.9,9.4-7.1,15.2-8c9.4-1.4,18.6-1.7,27,4.2
	c2.9,2.1,5.2,4.8,6.9,8c3.2,5.5,4.9,11.7,5.1,18c0.1,20,0.1,40,0.2,60c0,2.9-0.9,3.9-4,3.7c-5.6-0.3-11.2-0.3-16.8,0
	c-3.4,0.2-4.2-0.9-4.2-4c0.1-17,0-34,0-51c0.1-1.7,0-3.3-0.2-5c-1.1-5.6-3.9-10.1-9.6-11.7c-6.1-1.7-11.9-1-16.5,4
	c-3.3,3.5-5.1,8.3-5,13.2c0.2,16.3,0.2,32.6,0.3,49c0,5.6,0.1,5.6-5.7,5.6c-5.3,0-10.7-0.2-16,0c-3.1,0.1-3.9-0.9-3.9-4
	c0.1-27.1,0-54.3,0-81.4c0-1.2-0.1-2.3,0-3.5c0.1-4.5,0.1-4.5,3.4-4.7c5.1-0.2,10.3-0.3,15.5,0c3.1,0.1,5.1,1.3,6.2,5.1
	C376.1,40.7,376.3,41.4,376.5,42.1z"/>
<path class="st0" d="M453.8,64.2c0-19.8,0.1-39.6-0.1-59.5c0-3,0.6-4.2,3.8-4c5.6,0.2,11.3,0.2,17-0.1c3.4-0.2,4.2,1.1,4.1,4.3
	c-0.2,19.1-0.1,38.3-0.1,57.4c0,20.5,0.1,41,0.1,61.5c0,4.6,0,4.6-4.6,4.6c-5.3,0-10.7-0.3-16-0.1c-3.2,0.1-4.2-0.8-4.2-4.2
	L453.8,64.2z"/>
<path class="st0" d="M328.2,81.3c0,14.3-0.1,28.7,0.1,43c0,3.2-0.7,4.5-4.1,4.3c-6-0.3-12-0.3-18-0.1c-2.8,0.1-3.7-0.9-3.7-3.7
	c0.1-11.8,0.1-23.7,0.1-35.5c0-16.5,0-33,0.1-49.5c0-4.2,0-4.2,4.4-4.2c5.7,0,11.3-0.1,17-0.1c4.1,0,4,0,4,4.4L328.2,81.3z"/>
<path class="st0" d="M722,81.3V39.8c0-4.6,0-4.7,4.7-4.7c5.3,0,10.7,0,16,0.1c4.3,0,4.4,0.1,4.4,4.5c0.1,18,0.1,36,0.1,54
	c0,10,0.1,20,0.1,30c0,4.8-0.1,4.8-4.7,4.9c-5.5,0-11-0.2-16.5,0c-3.3,0.1-4.3-1-4.2-4.3C722,110,721.9,95.6,722,81.3L722,81.3z"/>
<path class="st0" d="M734.1,0.9c3.3,0,6.7,0.1,10,0c2.7-0.1,3.4,1,3.3,3.5c0,3.6-0.2,5-0.2,10.8c0,2.8,0.3,5.1-0.3,7.6
	c-0.6,2.3-3.3,1.8-5,1.8c-5.7,0.1-11.3,0.1-17,0.1c-4.1,0-5.1-1-5.2-4.9c-0.1-5,0.1-10,0-15c0-2.7,1-4,3.8-3.9
	C727.2,0.9,730.7,0.8,734.1,0.9L734.1,0.9z"/>
<path class="st0" d="M315.1,23.9c-3.3,0-6.6-0.1-10,0c-2.2,0.1-2.9-0.8-2.8-2.9c0.1-5.6,0.1-11.3,0.1-16.9c0-1.9,0.1-4,2.7-3.8
	c6.9,0.4,13.9-1,20.8,0.7c1.7,0.4,2.6,0.7,2.5,2.6c-0.1,5.8-0.1,11.6,0,17.4c0,2.2-0.8,3-2.9,2.9C322,23.7,318.5,23.8,315.1,23.9
	L315.1,23.9z"/>
<path class="st0" d="M131.5,9.2c-0.5-0.4-0.6-1.1-0.3-1.6c0.2-0.3,0.5-0.4,0.8-0.5c9.8-1.9,15.3-2.9,29.7-5.8
	c1.9-0.4,3.2-0.3,4.2,0.7s0.7,1.9,0.3,3.7c-0.4,1.8-2.3,14.3-4.2,27.8c-0.1,0.9-0.6,1.4-1.8,0.4c-2.4-2-5.1-4.2-5.8-4.9
	c-3.4-3.4-5.6-1.4-6.8-0.2c-4,3.8-2.3,2.1-4.9,4.7C125.9,50.1,109,66.9,92.1,83.8c-3.2,3.2-3.3,3.2-6.5,0.2
	c-4.1-3.9-8.3-7.8-12.2-11.8c-1.8-1.9-2.8-2.4-5.1-0.2C50,90.4,31.5,108.7,13,126.9c-5.7,5.6-4.1,4.8-8.9,0.1c-1-1-2.8-2.9-3.8-3.9
	c-0.4-0.5-0.4-1.2,0-1.6c3.2-3.2,15-15,21.4-21.2c15.2-14.9,30.5-29.9,45.7-44.9c3.9-3.9,3.1-2.9,9.5,3c2.9,2.6,5.7,5.4,8.3,8.3
	c2.1,2.3,3.2,2.9,5.6,0.5c15.4-15.8,30.6-32,46.6-47.2c1.6-1.4,1.7-3.8,0.2-5.4c-0.1-0.1-0.3-0.3-0.4-0.4
	C135.8,12.9,135.3,12.3,131.5,9.2z"/>
<path class="st0" d="M49.9,22c-1.1-2.6,0.1-4.3,3-5c3.2-0.7,6.4-1.7,9.6-2.5c5.2-1.4,5.2-1.4,7.2,3.5c3.4,8.5,3.4,8,12.5,9
	c5,0.5,7.2-1.6,9.2-5.3c4-7.1,4.1-7.1,11.5-3.8c3,1.4,6.1,2.5,9.1,3.9c1.8,0.8,2.4,1.8,1.5,4.2c-6.3,9.2-9.1,13-15.3,21.2
	c-1.5,1.3-2.5,1.7-4.3,0.6c-12.1-7.2-31.6-5-43.4,7.9c-1.4,1.4-2.6,3-3.5,4.8c-2.5,5.9-5.5,8.1-9.2,11.6
	c-7.3,6.7-14.2,13.6-21.2,20.5c-2.6,2.5-2.6,2.5-3.3,2.2s-2.1-9.3-2.8-13.9c-0.3-1.8,0.4-2.8,2.2-3.2c3.2-0.8,5.6-1.5,9.2-2.3
	c2.3-0.5,2.9-0.7,3.4-3.1c0.4-1.6,1.1-4,1.5-5.9c1.1-5.6-0.4-8-7-11.5c-4.4-2.4-3.8-2.8-1.3-7.5c1.7-3.2,3.8-6.1,5.7-9.3
	c1.3-2.3,3.2-3.1,5.8-1.6c2,1.2,4.1,2.1,6.4,2.7c2.6,0.8,3.3,2.1,8-1.5c0,0,4.4-2.1,6-6.6C51.4,28.3,50,22.4,49.9,22z"/>
<path class="st0" d="M149.1,40.2c0.3-0.3,1.4-0.4,1.5,0c0.1,1.2,0.1,2.4,0,3.5c0,29.8-0.6,59.6,0,89.5c0.1,5.3,0.1,5.3-3.9,5.3
	c-6,0-13.4,0-19.4,0c-3.5,0-3.5,0-3.5-3.7c0.1-22.3,0.1-44.7,0.1-67c-0.1-1.3,0.4-2.7,1.3-3.6C133,56.4,140.9,48.5,149.1,40.2z"/>
<path class="st0" d="M86.6,97.6c0-0.5,0.4-0.9,0.9-0.9c0.1,0,0.3,0,0.4,0.1c2.2,1.2,3.7,0.5,5.3-1.2c5.2-5.6,10.8-10.9,16.2-16.2
	c1-1,1.7-2.2,3-2.8c0.4-0.2,1,0,1.1,0.5c0,0,0,0,0,0c0.2,0.7,0.2,1.5,0.1,2.2c0,18.1,0,36.2,0,54.4c0,4.7,0,4.7-3.3,4.8
	c-6.3,0.1-13.5,0-19.8,0.1c-4-0.1-4-0.1-4-3.5C86.7,123,86.6,110.8,86.6,97.6z"/>
<path class="st0" d="M76.8,112.7c0,7.3,0,14.6,0,22c0,3.9,0,3.9-3.6,3.8c-6.7,0-13,0-19.5,0c-4.2,0-4.2,0-4.1-3.9
	c0-9.2-0.1-18.3-0.1-27.5c-0.1-2.3,0.9-4.6,2.7-6.1c5-4.9,9.8-9.9,14.9-14.8c3.8-4,4.3-4.6,6.2-2.8c3.5,3.6,3.5,5.6,3.5,7.1
	C76.8,98.1,76.8,105.4,76.8,112.7L76.8,112.7z"/>
<path class="st0" d="M15.5,136.7L38.9,114c0.2-0.2,0.5-0.2,0.7,0c0.1,0.1,0.1,0.2,0.1,0.3v21.3c0,2.9,0,2.9-2.9,2.9
	c-6.9,0-12.7,0-20.6,0c-0.5,0.1-1.1-0.2-1.2-0.8C15,137.4,15.2,137,15.5,136.7z"/>
<path class="st0" d="M161.9,35.2"/>
<path class="st0" d="M129.4,7.4"/>
</svg>
