<svg id="Слой_1" data-name="Слой 1" xmlns="http://www.w3.org/2000/svg" viewBox="0 0 894.5 158.86"><defs><style>.cls-1{fill:#0fa0e4;}.cls-2{fill:#17254c;}</style></defs><path class="cls-1" d="M901.09,341.18C929.23,349.9,948.3,371.83,948,402c.09,13.31-3.28,24.65-10.3,34.81-1.58,2.28-1.55,3.66.5,5.41,2.54,2.16,4.86,4.56,7.32,6.8,2.12,1.93,2,3.58-1.84,6.15a34.16,34.16,0,0,0-10.09,10.05c-2.75,4.31-3.79,3.43-5.21,1.82-2.53-2.88-5.28-5.59-7.57-8.65-1.8-2.41-3.17-2.47-5.71-.93-16.24,9.87-33.59,11.17-51.44,5.51-18.58-5.9-31.23-18.34-38.72-36.33a63.51,63.51,0,0,1-2-44.72c5.72-18,16.4-30.16,33.78-37.8,4.42-1.94,3.21-1.46,5.32-2.46,3.4-1.61,12-3,20.16-3C889.45,338.68,901.09,341.18,901.09,341.18ZM899.4,437.9c-1.93-1.84-3.45-3.31-5-4.75-2.56-2.38-5.12-4.77-7.73-7.09-1.44-1.29-2-2.35-.34-4.06q6.15-6.19,12-12.71c1.6-1.78,2.68-1.88,4.37-.09,3.54,3.76,7.32,7.29,10.93,11,1.68,1.71,2.74,1.39,3.65-.71a45.07,45.07,0,0,0,3.33-13c3-25.67-17.56-49.57-48.13-41.46a30.77,30.77,0,0,0-18,12.67c-7.67,11.26-8.87,23.63-5.36,36.32C856.68,441.24,881.6,446.71,899.4,437.9Z" transform="translate(-53.46 -335.12)"/><path class="cls-2" d="M725.74,380.77c.39,0,.32-.61.34-.87.24-3.08-2-7.79.76-9,2.26-1,3-.62,8.71-.57,4.16-.11,8.33,0,12.49-.15,2.18-.08,3,.81,3,2.91s0,4.33,0,6.49q.09,33.23.18,66.44c0,6.68-.45,13.29-2.58,19.7C744,479.3,734.5,488,720.94,491.4c-19.42,4.91-38.33,3-56-7.14-4-2.29-3.93-2.36-1.64-6.31s4.72-8,6.84-12.18c1.28-2.5,2.44-2.53,4.55-.91,9.1,7,19.62,8.7,30.72,7.82,13.39-1.07,20.54-8.68,20.88-22,.05-2.13.34-4.3-.27-6.34-1.89-.57-2.57.89-3.37,1.79-16.45,18.37-48,11.41-59.22-8.15-7-12.24-8.08-25.61-5.34-39.19.86-4.25,1.22-6.43,2.48-9.21,2.27-5,3.62-6.94,4.93-8.3,5.64-5.79,5.68-5.75,13.61-8.86,11.66-4.56,23.36-5.94,35.28-.59C719,373.86,723.66,380.82,725.74,380.77ZM727,412.54c-.06-13.33-9.65-22.68-23.2-22.62-13.34.05-22,8.92-21.84,22.47.13,14.38,8.37,23.14,21.76,23.11C717.84,435.48,727.09,426.35,727,412.54Z" transform="translate(-53.46 -335.12)"/><path class="cls-2" d="M292.06,341.17h42c4.48,0,4.51,0,4.57,4.27.07,5.16-.1,10.33.22,15.48.23,3.58-1.39,4-4.41,4-10.15-.18-20.31-.15-30.47-.16-9.66,0-19.32.13-29,0-3,0-4.1.87-4,4,.27,6.65.14,13.32.23,20,.05,4.29.09,4.34,4.5,4.35q24.48,0,49,0c5.33,0,5.39,0,5.48,5.51.08,4.66-.22,9.33.07,14,.21,3.32-1.2,3.82-4.06,3.79-16-.15-32-.16-48-.18-8.41,0-7.14-.77-7.18,7.12-.06,12.16-.06,24.32.15,36.47.05,3-.62,4.19-3.82,4.05-5.82-.26-11.65-.11-17.48-.19-4.15-.05-4.2-.1-4.2-4.62,0-15.66.12-31.31,0-47-.14-14.29-.12-28.58-.2-42.86-.05-8.16-.4-16.42.18-24.63.21-3.08,1.47-3.41,4-3.4C263.75,341.22,277.9,341.18,292.06,341.17Z" transform="translate(-53.46 -335.12)"/><path class="cls-2" d="M600.36,465c-22.16-.25-37.3-8.2-46.32-25.69-8.6-16.69-7.59-33.52,2.31-49.43,5.33-8.59,13.18-14,22.72-18.19a54.2,54.2,0,0,1,17.14-3.77c11.37-.35,21,4.13,30.15,10.17a33.43,33.43,0,0,1,9.47,8.74,44.91,44.91,0,0,1,4.77,8.7c6.37,14.37,6.45,28.9-.42,43C631.63,456,616.88,464.2,600.36,465Zm-26.23-47.67a28,28,0,0,0,1.35,8.84c3,10.39,11.47,16.77,21.74,16.46,11-.34,19.82-7.06,22.32-17.34,1.56-6.43,1.62-12.92-.82-19.16-2.81-7.19-7.58-12.48-15.48-14.21C586.8,388.29,574.15,398.9,574.13,417.28Z" transform="translate(-53.46 -335.12)"/><path class="cls-2" d="M430,377.21a1.08,1.08,0,0,0,1.71.44c4.71-3.92,9.35-7.13,15.18-8,9.4-1.36,18.57-1.69,27,4.22a23.18,23.18,0,0,1,6.87,8,37.29,37.29,0,0,1,5.08,18c.09,20,.07,40,.21,59.95,0,2.9-.87,3.91-4.05,3.72a138.32,138.32,0,0,0-16.79,0c-3.43.21-4.24-.92-4.22-4,.12-17,.05-34,0-51a25.69,25.69,0,0,0-.25-5c-1.1-5.58-3.88-10.1-9.58-11.73-6.11-1.74-11.93-1-16.52,4a18.38,18.38,0,0,0-5,13.16c.21,16.32.2,32.64.32,49,0,5.61.1,5.62-5.71,5.6-5.33,0-10.67-.23-16,0-3.12.12-3.89-.91-3.88-4,.11-27.15,0-54.29,0-81.43,0-1.17-.08-2.34-.05-3.49.1-4.53.1-4.53,3.38-4.68,5.15-.24,10.33-.27,15.48,0,3.13.13,5.1,1.29,6.22,5.13A16.67,16.67,0,0,0,430,377.21Z" transform="translate(-53.46 -335.12)"/><path class="cls-2" d="M507.29,399.35c0-19.82.06-39.63-.06-59.45,0-3,.59-4.18,3.82-4,5.65.22,11.33.22,17-.08,3.42-.18,4.15,1.08,4.13,4.27-.15,19.14-.12,38.29-.1,57.44,0,20.48.08,41,.1,61.45,0,4.61,0,4.63-4.62,4.61-5.33,0-10.66-.26-16-.06-3.24.12-4.24-.76-4.21-4.19" transform="translate(-53.46 -335.12)"/><path class="cls-2" d="M381.67,416.4c0,14.33-.1,28.66.07,43,0,3.21-.72,4.5-4.13,4.34-6-.27-12-.27-18-.14-2.82.06-3.74-.85-3.7-3.71.15-11.83.07-23.66.09-35.49q0-24.74.07-49.47c0-4.2,0-4.2,4.38-4.23,5.67,0,11.33-.11,17-.11,4.12,0,4,0,4,4.35" transform="translate(-53.46 -335.12)"/><path class="cls-1" d="M775.44,416.38V374.91c0-4.65,0-4.67,4.69-4.67q8,0,16,.06c4.33,0,4.41.07,4.42,4.51.08,18,.09,36,.14,54,0,10,.1,20,.06,30,0,4.76-.12,4.82-4.7,4.86-5.5,0-11-.16-16.49.05-3.3.13-4.28-1-4.24-4.32.17-14.32.07-28.65.07-43Z" transform="translate(-53.46 -335.12)"/><path class="cls-1" d="M787.61,336c3.33,0,6.67.14,10-.05,2.7-.15,3.39,1,3.35,3.5-.05,3.58-.2,5-.2,10.78,0,2.81.31,5.11-.32,7.63-.57,2.28-3.26,1.77-5,1.8-5.65.11-11.32.12-17,.08-4.07,0-5.09-1-5.15-4.88-.07-5,.07-10,0-15,0-2.74,1.05-4,3.83-3.91,3.5.09,7,0,10.49,0Z" transform="translate(-53.46 -335.12)"/><path class="cls-2" d="M368.53,359c-3.32,0-6.65-.09-10,0-2.21.08-2.87-.84-2.83-2.94.12-5.64.06-11.29.12-16.94,0-1.87.15-4,2.72-3.82,6.91.4,13.85-1,20.75.7,1.74.44,2.58.66,2.55,2.61-.09,5.81-.1,11.63,0,17.44,0,2.17-.77,3-2.9,2.9-3.48-.1-7,0-10.46,0Z" transform="translate(-53.46 -335.12)"/><path class="cls-2" d="M185,344.29a1.18,1.18,0,0,1,.56-2.13c9.79-1.89,15.27-2.94,29.74-5.81,1.86-.38,3.21-.3,4.2.69s.67,1.91.31,3.68S217.5,355,215.6,368.56c-.12.85-.65,1.37-1.77.44-2.43-2-5.08-4.2-5.81-4.93-3.43-3.43-5.6-1.41-6.84-.24-4,3.79-2.34,2.14-4.9,4.68q-25.41,25.13-50.72,50.37c-3.21,3.19-3.26,3.23-6.51.17-4.13-3.88-8.27-7.75-12.22-11.81-1.82-1.87-2.84-2.43-5.06-.2q-27.51,27.65-55.3,55c-5.7,5.63-4.14,4.78-8.94.06-1-1-2.76-2.86-3.75-3.94a1.17,1.17,0,0,1,0-1.63c3.17-3.17,15-15,21.35-21.23Q98,412.88,120.79,390.43c3.93-3.86,3.09-2.9,9.52,2.95,2.9,2.64,5.67,5.43,8.33,8.32,2.08,2.26,3.25,2.88,5.55.52,15.45-15.84,30.6-32,46.61-47.24a3.82,3.82,0,0,0-.16-5.78C189.23,348,188.75,347.46,185,344.29Z" transform="translate(-53.46 -335.12)"/><path class="cls-1" d="M104.06,366.38c1.38-2.76.58-6.16-.74-9.23-1.14-2.65.07-4.32,3-4.95,3.22-.72,6.39-1.66,9.58-2.53,5.23-1.41,5.22-1.42,7.18,3.52,3.38,8.51,3.43,8.05,12.52,9,5,.5,7.17-1.62,9.25-5.3,4-7.13,4.1-7.08,11.51-3.78,3,1.35,6.1,2.52,9.07,3.93,1.75.82,2.44,1.84,1.47,4.17-6.34,9.21-9.06,13-15.26,21.21-1.53,1.26-2.53,1.71-4.3.65-12.11-7.24-31.57-5-43.38,7.86a18,18,0,0,0-3.54,4.8c-2.54,5.85-5.48,8.14-9.16,11.57C84,414,77.06,420.88,70.06,427.76c-2.59,2.54-2.59,2.54-3.27,2.22s-2.07-9.32-2.77-13.89c-.27-1.81.36-2.78,2.17-3.23,3.25-.8,5.64-1.46,9.17-2.31,2.27-.55,2.86-.72,3.41-3.07.38-1.62,1.14-4,1.51-5.91,1.13-5.65-.44-8-7-11.55-4.39-2.39-3.83-2.84-1.35-7.49,1.71-3.21,3.83-6.14,5.65-9.26,1.33-2.3,3.21-3.12,5.85-1.58a27.78,27.78,0,0,0,6.36,2.74c2.6.75,5.18,1.23,8-1.51" transform="translate(-53.46 -335.12)"/><path class="cls-1" d="M202.56,375.34c.33-.33,1.42-.44,1.47,0a19.46,19.46,0,0,1,0,3.54c0,29.82-.63,59.65,0,89.47.11,5.29.11,5.29-3.9,5.31-6,0-13.43,0-19.41,0-3.49,0-3.49,0-3.49-3.68.09-22.33.06-44.65.06-67a4.75,4.75,0,0,1,1.32-3.62C186.48,391.52,194.34,383.6,202.56,375.34Z" transform="translate(-53.46 -335.12)"/><path class="cls-1" d="M140.08,432.77a.87.87,0,0,1,1.27-.77c2.24,1.18,3.7.48,5.31-1.24,5.24-5.56,10.75-10.87,16.21-16.22,1-1,1.74-2.21,3-2.79a.87.87,0,0,1,1.15.48,5.61,5.61,0,0,1,.14,2.22q0,27.18,0,54.35c0,4.71,0,4.71-3.34,4.77-6.31.11-13.49,0-19.8.12-4-.12-4-.12-4-3.47C140.13,458.08,140.09,445.94,140.08,432.77Z" transform="translate(-53.46 -335.12)"/><path class="cls-1" d="M130.23,447.83c0,7.33,0,14.65,0,22,0,3.85,0,3.85-3.57,3.84-6.7,0-13,0-19.47,0-4.17,0-4.17,0-4.06-3.88,0-9.16-.11-18.3-.11-27.47a7.59,7.59,0,0,1,2.66-6.08c5-4.88,9.85-9.92,14.89-14.77,3.85-4.05,4.31-4.65,6.15-2.76,3.51,3.59,3.51,5.6,3.49,7.14,0,7.33,0,14.66,0,22Z" transform="translate(-53.46 -335.12)"/><path class="cls-1" d="M69,471.86l23.35-22.7a.49.49,0,0,1,.82.35v21.31c0,2.85,0,2.85-2.86,2.86-6.86,0-12.74,0-20.57,0A1,1,0,0,1,69,471.86Z" transform="translate(-53.46 -335.12)"/><path class="cls-2" d="M215.31,370.3" transform="translate(-53.46 -335.12)"/><path class="cls-2" d="M182.82,342.5" transform="translate(-53.46 -335.12)"/></svg>