<?xml version="1.0" encoding="utf-8"?>
<!-- Generator: Adobe Illustrator 24.3.0, SVG Export Plug-In . SVG Version: 6.00 Build 0)  -->
<svg version="1.1" id="Слой_1" xmlns="http://www.w3.org/2000/svg" xmlns:xlink="http://www.w3.org/1999/xlink" x="0px" y="0px"
	 viewBox="0 0 166.6 137.6" style="enable-background:new 0 0 166.6 137.6;" xml:space="preserve">
<style type="text/css">
	.st0{fill:#FFFFFF;stroke:#FFFFFF;stroke-miterlimit:10;}
	.st1{fill:#FFFFFF;stroke:#FFFDFD;stroke-miterlimit:10;}
	.st2{fill:#17254C;}
</style>
<path class="st0" d="M131.5,8.1c-0.5-0.4-0.6-1.1-0.3-1.6c0.2-0.3,0.5-0.4,0.8-0.5c9.8-1.9,15.3-2.9,29.7-5.8
	c1.9-0.4,3.2-0.3,4.2,0.7s0.7,1.9,0.3,3.7c-0.4,1.8-2.3,14.3-4.2,27.8c-0.1,0.9-0.6,1.4-1.8,0.4c-2.4-2-5.1-4.2-5.8-4.9
	c-3.4-3.4-5.6-1.4-6.8-0.2c-4,3.8-2.3,2.1-4.9,4.7C125.9,49.1,109,65.9,92.1,82.7c-3.2,3.2-3.3,3.2-6.5,0.2
	c-4.1-3.9-8.3-7.8-12.2-11.8c-1.8-1.9-2.8-2.4-5.1-0.2C50,89.3,31.5,107.7,13,125.9c-5.7,5.6-4.1,4.8-8.9,0.1c-1-1-2.8-2.9-3.8-3.9
	c-0.4-0.5-0.4-1.2,0-1.6c3.2-3.2,15-15,21.4-21.2c15.2-14.9,30.5-29.9,45.7-44.9c3.9-3.9,3.1-2.9,9.5,3c2.9,2.6,5.7,5.4,8.3,8.3
	c2.1,2.3,3.2,2.9,5.6,0.5c15.4-15.8,30.6-32,46.6-47.2c1.6-1.4,1.7-3.8,0.2-5.4c-0.1-0.1-0.3-0.3-0.4-0.4
	C135.8,11.9,135.3,11.3,131.5,8.1z"/>
<path class="st0" d="M50.6,30.2c1.4-2.8,0.6-6.2-0.7-9.2c-1.1-2.6,0.1-4.3,3-5c3.2-0.7,6.4-1.7,9.6-2.5c5.2-1.4,5.2-1.4,7.2,3.5
	c3.4,8.5,3.4,8,12.5,9c5,0.5,7.2-1.6,9.2-5.3c4-7.1,4.1-7.1,11.5-3.8c3,1.4,6.1,2.5,9.1,3.9c1.8,0.8,2.4,1.8,1.5,4.2
	c-6.3,9.2-9.1,13-15.3,21.2c-1.5,1.3-2.5,1.7-4.3,0.6c-12.1-7.2-31.6-5-43.4,7.9c-1.4,1.4-2.6,3-3.5,4.8c-2.5,5.9-5.5,8.1-9.2,11.6
	c-7.3,6.7-14.2,13.6-21.2,20.5c-2.6,2.5-2.6,2.5-3.3,2.2s-2.1-9.3-2.8-13.9c-0.3-1.8,0.4-2.8,2.2-3.2c3.2-0.8,5.6-1.5,9.2-2.3
	c2.3-0.5,2.9-0.7,3.4-3.1c0.4-1.6,1.1-4,1.5-5.9c1.1-5.6-0.4-8-7-11.5c-4.4-2.4-3.8-2.8-1.3-7.5c1.7-3.2,3.8-6.1,5.7-9.3
	c1.3-2.3,3.2-3.1,5.8-1.6c2,1.2,4.1,2.1,6.4,2.7c2.6,0.8,5.2,1.2,8-1.5L50.6,30.2z"/>
<path class="st1" d="M149.1,39.2c0.3-0.3,1.4-0.4,1.5,0c0.1,1.2,0.1,2.4,0,3.5c0,29.8-0.6,59.6,0,89.5c0.1,5.3,0.1,5.3-3.9,5.3
	c-6,0-13.4,0-19.4,0c-3.5,0-3.5,0-3.5-3.7c0.1-22.3,0.1-44.7,0.1-67c-0.1-1.3,0.4-2.7,1.3-3.6C133,55.4,140.9,47.5,149.1,39.2z"/>
<path class="st1" d="M86.6,96.6c0-0.5,0.4-0.9,0.9-0.9c0.1,0,0.3,0,0.4,0.1c2.2,1.2,3.7,0.5,5.3-1.2c5.2-5.6,10.8-10.9,16.2-16.2
	c1-1,1.7-2.2,3-2.8c0.4-0.2,1,0,1.1,0.5c0,0,0,0,0,0c0.2,0.7,0.2,1.5,0.1,2.2c0,18.1,0,36.2,0,54.4c0,4.7,0,4.7-3.3,4.8
	c-6.3,0.1-13.5,0-19.8,0.1c-4-0.1-4-0.1-4-3.5C86.7,121.9,86.6,109.8,86.6,96.6z"/>
<path class="st1" d="M76.8,111.7c0,7.3,0,14.6,0,22c0,3.9,0,3.9-3.6,3.8c-6.7,0-13,0-19.5,0c-4.2,0-4.2,0-4.1-3.9
	c0-9.2-0.1-18.3-0.1-27.5c-0.1-2.3,0.9-4.6,2.7-6.1c5-4.9,9.8-9.9,14.9-14.8c3.8-4,4.3-4.6,6.2-2.8c3.5,3.6,3.5,5.6,3.5,7.1
	C76.8,97,76.8,104.4,76.8,111.7L76.8,111.7z"/>
<path class="st1" d="M15.5,135.7L38.9,113c0.2-0.2,0.5-0.2,0.7,0c0.1,0.1,0.1,0.2,0.1,0.3v21.3c0,2.9,0,2.9-2.9,2.9
	c-6.9,0-12.7,0-20.6,0c-0.5,0.1-1.1-0.2-1.2-0.8C15,136.4,15.2,135.9,15.5,135.7z"/>
<path class="st2" d="M161.9,34.2"/>
<path class="st2" d="M129.4,6.4"/>
</svg>
